REM DIRINDEX 1\2,1\3,1\4\5,1\4\6
REM DIRNAME "folder01","folder02","folder03","folder04","folder05","folder06"
TITLE ""
FILE "111.mp3" MP3
  TRACK 01 AUDIO
    TITLE "6:cjc170_1621"
    INDEX 01 00:00:00
  TRACK 02 AUDIO
    TITLE "0:"
    INDEX 01 00:01:43
  TRACK 03 AUDIO
    TITLE "6:cjc170_1622"
    INDEX 01 00:02:46
  TRACK 04 AUDIO
    TITLE "0:"
    INDEX 01 00:04:02
  TRACK 05 AUDIO
    TITLE "5:cjc170_1623"
    INDEX 01 00:04:53
  TRACK 06 AUDIO
    TITLE "0:"
    INDEX 01 00:06:70
  TRACK 07 AUDIO
    TITLE "6:cjc170_1624"
    INDEX 01 00:07:57
  TRACK 08 AUDIO
    TITLE "0:"
    INDEX 01 00:09:03
  TRACK 09 AUDIO
    TITLE "5:cjc170_1625"
    INDEX 01 00:09:41
  TRACK 10 AUDIO
    TITLE "0:"
    INDEX 01 00:11:41
  TRACK 11 AUDIO
    TITLE "6:cjc170_1626"
    INDEX 01 00:12:13
  TRACK 12 AUDIO
    TITLE "0:"
    INDEX 01 00:13:36
  TRACK 13 AUDIO
    TITLE "5:cjc170_1627"
    INDEX 01 00:14:08
  TRACK 14 AUDIO
    TITLE "0:"
    INDEX 01 00:17:73
  TRACK 15 AUDIO
    TITLE "6:cjc170_1628"
    INDEX 01 00:18:43
  TRACK 16 AUDIO
    TITLE "0:"
    INDEX 01 00:19:66
  TRACK 17 AUDIO
    TITLE "5:cjc170_1629"
    INDEX 01 00:20:38
  TRACK 18 AUDIO
    TITLE "0:"
    INDEX 01 00:23:19
  TRACK 19 AUDIO
    TITLE "6:cjc170_1630"
    INDEX 01 00:23:62
  TRACK 20 AUDIO
    TITLE "0:"
    INDEX 01 00:25:06
  TRACK 21 AUDIO
    TITLE "5:cjc170_1631"
    INDEX 01 00:26:04
  TRACK 22 AUDIO
    TITLE "0:"
    INDEX 01 00:29:35
  TRACK 23 AUDIO
    TITLE "6:cjc170_1632"
    INDEX 01 00:30:07
  TRACK 24 AUDIO
    TITLE "0:"
    INDEX 01 00:31:38
  TRACK 25 AUDIO
    TITLE "5:cjc170_1633"
    INDEX 01 00:32:10
  TRACK 26 AUDIO
    TITLE "0:"
    INDEX 01 00:35:11
  TRACK 27 AUDIO
    TITLE "6:cjc170_1634"
    INDEX 01 00:35:54
  TRACK 28 AUDIO
    TITLE "0:"
    INDEX 01 00:37:06
  TRACK 29 AUDIO
    TITLE "5:cjc170_1635"
    INDEX 01 00:37:55
  TRACK 30 AUDIO
    TITLE "0:"
    INDEX 01 00:41:54
  TRACK 31 AUDIO
    TITLE "6:cjc170_1636"
    INDEX 01 00:42:34
  TRACK 32 AUDIO
    TITLE "0:"
    INDEX 01 00:43:55
  TRACK 33 AUDIO
    TITLE "5:cjc170_1637"
    INDEX 01 00:44:29
  TRACK 34 AUDIO
    TITLE "0:"
    INDEX 01 00:48:25
  TRACK 35 AUDIO
    TITLE "6:cjc170_1638"
    INDEX 01 00:48:70
  TRACK 36 AUDIO
    TITLE "0:"
    INDEX 01 00:50:20
  TRACK 37 AUDIO
    TITLE "5:cjc170_1639"
    INDEX 01 00:50:69
  TRACK 38 AUDIO
    TITLE "0:"
    INDEX 01 00:54:30
  TRACK 39 AUDIO
    TITLE "6:cjc170_1640"
    INDEX 01 00:55:03
  TRACK 40 AUDIO
    TITLE "0:"
    INDEX 01 00:56:26
  TRACK 41 AUDIO
    TITLE "5:cjc170_1641"
    INDEX 01 00:57:02
  TRACK 42 AUDIO
    TITLE "0:"
    INDEX 01 01:00:56
  TRACK 43 AUDIO
    TITLE "6:cjc170_1642"
    INDEX 01 01:01:28
  TRACK 44 AUDIO
    TITLE "0:"
    INDEX 01 01:02:54
  TRACK 45 AUDIO
    TITLE "5:cjc170_1643"
    INDEX 01 01:03:27
  TRACK 46 AUDIO
    TITLE "0:"
    INDEX 01 01:07:18
  TRACK 47 AUDIO
    TITLE "6:cjc170_1644"
    INDEX 01 01:07:69
  TRACK 48 AUDIO
    TITLE "0:"
    INDEX 01 01:09:19
  TRACK 49 AUDIO
    TITLE "5:cjc170_1645"
    INDEX 01 01:09:70
  TRACK 50 AUDIO
    TITLE "0:"
    INDEX 01 01:13:50
  TRACK 51 AUDIO
    TITLE "6:cjc170_1646"
    INDEX 01 01:14:20
  TRACK 52 AUDIO
    TITLE "0:"
    INDEX 01 01:15:67
  TRACK 53 AUDIO
    TITLE "5:cjc170_1647"
    INDEX 01 01:16:37
  TRACK 54 AUDIO
    TITLE "0:"
    INDEX 01 01:19:51
  TRACK 55 AUDIO
    TITLE "6:cjc170_1648"
    INDEX 01 01:20:23
  TRACK 56 AUDIO
    TITLE "0:"
    INDEX 01 01:21:71
  TRACK 57 AUDIO
    TITLE "5:cjc170_1649"
    INDEX 01 01:22:42
  TRACK 58 AUDIO
    TITLE "0:"
    INDEX 01 01:25:24
  TRACK 59 AUDIO
    TITLE "6:cjc170_1650"
    INDEX 01 01:25:67
  TRACK 60 AUDIO
    TITLE "0:"
    INDEX 01 01:27:37
  TRACK 61 AUDIO
    TITLE "5:cjc170_1651"
    INDEX 01 01:28:09
  TRACK 62 AUDIO
    TITLE "0:"
    INDEX 01 01:31:05
  TRACK 63 AUDIO
    TITLE "6:cjc170_1652"
    INDEX 01 01:31:50
  TRACK 64 AUDIO
    TITLE "0:"
    INDEX 01 01:33:18
  TRACK 65 AUDIO
    TITLE "5:cjc170_1653"
    INDEX 01 01:33:57
  TRACK 66 AUDIO
    TITLE "0:"
    INDEX 01 01:38:05
  TRACK 67 AUDIO
    TITLE "6:cjc170_1654"
    INDEX 01 01:38:43
  TRACK 68 AUDIO
    TITLE "0:"
    INDEX 01 01:40:18
  TRACK 69 AUDIO
    TITLE "5:cjc170_1655"
    INDEX 01 01:40:63
  TRACK 70 AUDIO
    TITLE "0:"
    INDEX 01 01:44:24
  TRACK 71 AUDIO
    TITLE "6:cjc170_1656"
    INDEX 01 01:44:63
  TRACK 72 AUDIO
    TITLE "0:"
    INDEX 01 01:46:30
  TRACK 73 AUDIO
    TITLE "5:cjc170_1657"
    INDEX 01 01:46:67
  TRACK 74 AUDIO
    TITLE "0:"
    INDEX 01 01:49:66
  TRACK 75 AUDIO
    TITLE "6:cjc170_1658"
    INDEX 01 01:50:32
  TRACK 76 AUDIO
    TITLE "0:"
    INDEX 01 01:52:07
  TRACK 77 AUDIO
    TITLE "5:cjc170_1659"
    INDEX 01 01:52:56
  TRACK 78 AUDIO
    TITLE "0:"
    INDEX 01 01:55:21
  TRACK 79 AUDIO
    TITLE "6:cjc170_1660"
    INDEX 01 01:55:64
  TRACK 80 AUDIO
    TITLE "0:"
    INDEX 01 01:57:18
  TRACK 81 AUDIO
    TITLE "5:cjc170_1661"
    INDEX 01 01:57:58
  TRACK 82 AUDIO
    TITLE "0:"
    INDEX 01 02:00:11
  TRACK 83 AUDIO
    TITLE "6:cjc170_1662"
    INDEX 01 02:00:60
  TRACK 84 AUDIO
    TITLE "0:"
    INDEX 01 02:02:29
  TRACK 85 AUDIO
    TITLE "5:cjc170_1663"
    INDEX 01 02:03:07
  TRACK 86 AUDIO
    TITLE "0:"
    INDEX 01 02:06:29
  TRACK 87 AUDIO
    TITLE "6:cjc170_1664"
    INDEX 01 02:06:70
  TRACK 88 AUDIO
    TITLE "0:"
    INDEX 01 02:08:48
  TRACK 89 AUDIO
    TITLE "5:cjc170_1665"
    INDEX 01 02:09:14
  TRACK 90 AUDIO
    TITLE "0:"
    INDEX 01 02:11:26
  TRACK 91 AUDIO
    TITLE "6:cjc170_1666"
    INDEX 01 02:12:02
  TRACK 92 AUDIO
    TITLE "0:"
    INDEX 01 02:13:55
  TRACK 93 AUDIO
    TITLE "5:cjc170_1667"
    INDEX 01 02:14:25
  TRACK 94 AUDIO
    TITLE "0:"
    INDEX 01 02:18:26
  TRACK 95 AUDIO
    TITLE "6:cjc170_1668"
    INDEX 01 02:18:69
  TRACK 96 AUDIO
    TITLE "0:"
    INDEX 01 02:20:45
  TRACK 97 AUDIO
    TITLE "5:cjc170_1669"
    INDEX 01 02:21:05
  TRACK 98 AUDIO
    TITLE "0:"
    INDEX 01 02:23:57
  TRACK 99 AUDIO
    TITLE "6:cjc170_1670"
    INDEX 01 02:24:25
  TRACK 100 AUDIO
    TITLE "0:"
    INDEX 01 02:25:73
  TRACK 101 AUDIO
    TITLE "5:cjc170_1671"
    INDEX 01 02:26:45
  TRACK 102 AUDIO
    TITLE "0:"
    INDEX 01 02:30:35
  TRACK 103 AUDIO
    TITLE "6:cjc170_1672"
    INDEX 01 02:31:09
  TRACK 104 AUDIO
    TITLE "0:"
    INDEX 01 02:32:60
  TRACK 105 AUDIO
    TITLE "5:cjc170_1673"
    INDEX 01 02:33:20
  TRACK 106 AUDIO
    TITLE "0:"
    INDEX 01 02:37:49
  TRACK 107 AUDIO
    TITLE "6:cjc170_1674"
    INDEX 01 02:38:17
  TRACK 108 AUDIO
    TITLE "0:"
    INDEX 01 02:39:60
  TRACK 109 AUDIO
    TITLE "5:cjc170_1675"
    INDEX 01 02:40:30
  TRACK 110 AUDIO
    TITLE "0:"
    INDEX 01 02:44:12
  TRACK 111 AUDIO
    TITLE "6:cjc170_1676"
    INDEX 01 02:44:59
  TRACK 112 AUDIO
    TITLE "0:"
    INDEX 01 02:46:21
  TRACK 113 AUDIO
    TITLE "5:cjc170_1677"
    INDEX 01 02:46:62
  TRACK 114 AUDIO
    TITLE "0:"
    INDEX 01 02:48:59
  TRACK 115 AUDIO
    TITLE "6:cjc170_1678"
    INDEX 01 02:49:29
  TRACK 116 AUDIO
    TITLE "0:"
    INDEX 01 02:51:00
  TRACK 117 AUDIO
    TITLE "5:cjc170_1679"
    INDEX 01 02:51:51
  TRACK 118 AUDIO
    TITLE "0:"
    INDEX 01 02:54:16
  TRACK 119 AUDIO
    TITLE "6:cjc170_1680"
    INDEX 01 02:54:59
  TRACK 120 AUDIO
    TITLE "0:"
    INDEX 01 02:56:15
  TRACK 121 AUDIO
    TITLE "5:cjc170_1681"
    INDEX 01 02:56:54
  TRACK 122 AUDIO
    TITLE "0:"
    INDEX 01 02:58:28
  TRACK 123 AUDIO
    TITLE "6:cjc170_1682"
    INDEX 01 02:59:00
  TRACK 124 AUDIO
    TITLE "0:"
    INDEX 01 03:00:44
  TRACK 125 AUDIO
    TITLE "5:cjc170_1683"
    INDEX 01 03:01:14
  TRACK 126 AUDIO
    TITLE "5:cjc170_1684"
    INDEX 01 03:03:74
  TRACK 127 AUDIO
    TITLE "0:"
    INDEX 01 03:05:04
  TRACK 128 AUDIO
    TITLE "6:cjc170_1685"
    INDEX 01 03:05:57
  TRACK 129 AUDIO
    TITLE "0:"
    INDEX 01 03:07:39
  TRACK 130 AUDIO
    TITLE "5:cjc170_1686"
    INDEX 01 03:08:12
  TRACK 131 AUDIO
    TITLE "5:cjc170_1687"
    INDEX 01 03:10:66
  TRACK 132 AUDIO
    TITLE "0:"
    INDEX 01 03:12:04
  TRACK 133 AUDIO
    TITLE "6:cjc170_1688"
    INDEX 01 03:12:49
  TRACK 134 AUDIO
    TITLE "0:"
    INDEX 01 03:14:23
  TRACK 135 AUDIO
    TITLE "5:cjc170_1689"
    INDEX 01 03:14:64
  TRACK 136 AUDIO
    TITLE "5:cjc170_1690"
    INDEX 01 03:17:33
  TRACK 137 AUDIO
    TITLE "0:"
    INDEX 01 03:18:44
  TRACK 138 AUDIO
    TITLE "6:cjc170_1691"
    INDEX 01 03:19:06
  TRACK 139 AUDIO
    TITLE "0:"
    INDEX 01 03:20:55
  TRACK 140 AUDIO
    TITLE "5:cjc170_1692"
    INDEX 01 03:21:29
  TRACK 141 AUDIO
    TITLE "5:cjc170_1693"
    INDEX 01 03:23:57
  TRACK 142 AUDIO
    TITLE "0:"
    INDEX 01 03:24:59
  TRACK 143 AUDIO
    TITLE "6:cjc170_1694"
    INDEX 01 03:25:33
  TRACK 144 AUDIO
    TITLE "0:"
    INDEX 01 03:27:12
  TRACK 145 AUDIO
    TITLE "5:cjc170_1695"
    INDEX 01 03:27:49
  TRACK 146 AUDIO
    TITLE "0:"
    INDEX 01 03:29:54
  TRACK 147 AUDIO
    TITLE "6:cjc170_1696"
    INDEX 01 03:30:22
  TRACK 148 AUDIO
    TITLE "0:"
    INDEX 01 03:31:72
  TRACK 149 AUDIO
    TITLE "5:cjc170_1697"
    INDEX 01 03:32:40
  TRACK 150 AUDIO
    TITLE "0:"
    INDEX 01 03:35:66
  TRACK 151 AUDIO
    TITLE "6:cjc170_1698"
    INDEX 01 03:36:38
  TRACK 152 AUDIO
    TITLE "0:"
    INDEX 01 03:38:14
  TRACK 153 AUDIO
    TITLE "5:cjc170_1699"
    INDEX 01 03:38:51
  TRACK 154 AUDIO
    TITLE "0:"
    INDEX 01 03:42:54
  TRACK 155 AUDIO
    TITLE "6:cjc170_1700"
    INDEX 01 03:43:27
  TRACK 156 AUDIO
    TITLE "0:"
    INDEX 01 03:44:65
  TRACK 157 AUDIO
    TITLE "5:cjc170_1701"
    INDEX 01 03:45:33
  TRACK 158 AUDIO
    TITLE "0:"
    INDEX 01 03:50:31
  TRACK 159 AUDIO
    TITLE "6:cjc170_1702"
    INDEX 01 03:51:06
  TRACK 160 AUDIO
    TITLE "0:"
    INDEX 01 03:52:51
  TRACK 161 AUDIO
    TITLE "5:cjc170_1703"
    INDEX 01 03:53:15
  TRACK 162 AUDIO
    TITLE "5:cjc170_1704"
    INDEX 01 03:57:34
  TRACK 163 AUDIO
    TITLE "0:"
    INDEX 01 04:01:56
  TRACK 164 AUDIO
    TITLE "6:cjc170_1705"
    INDEX 01 04:02:28
  TRACK 165 AUDIO
    TITLE "0:"
    INDEX 01 04:03:53
  TRACK 166 AUDIO
    TITLE "5:cjc170_1706"
    INDEX 01 04:04:33
  TRACK 167 AUDIO
    TITLE "5:cjc170_1707"
    INDEX 01 04:07:74
  TRACK 168 AUDIO
    TITLE "0:"
    INDEX 01 04:09:22
  TRACK 169 AUDIO
    TITLE "6:cjc170_1708"
    INDEX 01 04:09:65
  TRACK 170 AUDIO
    TITLE "0:"
    INDEX 01 04:11:39
  TRACK 171 AUDIO
    TITLE "5:cjc170_1709"
    INDEX 01 04:11:74
  TRACK 172 AUDIO
    TITLE "0:"
    INDEX 01 04:16:51
  TRACK 173 AUDIO
    TITLE "6:cjc170_1710"
    INDEX 01 04:17:21
  TRACK 174 AUDIO
    TITLE "0:"
    INDEX 01 04:18:66
  TRACK 175 AUDIO
    TITLE "5:cjc170_1711"
    INDEX 01 04:19:36
  TRACK 176 AUDIO
    TITLE "0:"
    INDEX 01 04:24:20
  TRACK 177 AUDIO
    TITLE "6:cjc170_1712"
    INDEX 01 04:24:61
  TRACK 178 AUDIO
    TITLE "0:"
    INDEX 01 04:26:44
  TRACK 179 AUDIO
    TITLE "5:cjc170_1713"
    INDEX 01 04:27:04
  TRACK 180 AUDIO
    TITLE "0:"
    INDEX 01 04:29:72
  TRACK 181 AUDIO
    TITLE "6:cjc170_1714"
    INDEX 01 04:30:38
  TRACK 182 AUDIO
    TITLE "0:"
    INDEX 01 04:32:05
  TRACK 183 AUDIO
    TITLE "5:cjc170_1715"
    INDEX 01 04:32:50
  TRACK 184 AUDIO
    TITLE "0:"
    INDEX 01 04:36:46
  TRACK 185 AUDIO
    TITLE "6:cjc170_1716"
    INDEX 01 04:37:09
  TRACK 186 AUDIO
    TITLE "0:"
    INDEX 01 04:38:67
  TRACK 187 AUDIO
    TITLE "5:cjc170_1717"
    INDEX 01 04:39:31
  TRACK 188 AUDIO
    TITLE "0:"
    INDEX 01 04:43:48
  TRACK 189 AUDIO
    TITLE "6:cjc170_1718"
    INDEX 01 04:44:18
  TRACK 190 AUDIO
    TITLE "0:"
    INDEX 01 04:45:69
  TRACK 191 AUDIO
    TITLE "5:cjc170_1719"
    INDEX 01 04:46:37
  TRACK 192 AUDIO
    TITLE "0:"
    INDEX 01 04:49:02
  TRACK 193 AUDIO
    TITLE "6:cjc170_1720"
    INDEX 01 04:49:41
  TRACK 194 AUDIO
    TITLE "0:"
    INDEX 01 04:51:24
  TRACK 195 AUDIO
    TITLE "5:cjc170_1721"
    INDEX 01 04:51:62
  TRACK 196 AUDIO
    TITLE "0:"
    INDEX 01 04:55:01
  TRACK 197 AUDIO
    TITLE "6:cjc170_1722"
    INDEX 01 04:55:42
  TRACK 198 AUDIO
    TITLE "0:"
    INDEX 01 04:57:03
  TRACK 199 AUDIO
    TITLE "5:cjc170_1723"
    INDEX 01 04:57:45
  TRACK 200 AUDIO
    TITLE "0:"
    INDEX 01 05:00:37
  TRACK 201 AUDIO
    TITLE "6:cjc170_1724"
    INDEX 01 05:01:03
  TRACK 202 AUDIO
    TITLE "0:"
    INDEX 01 05:02:59
  TRACK 203 AUDIO
    TITLE "5:cjc170_1725"
    INDEX 01 05:03:24
  TRACK 204 AUDIO
    TITLE "5:cjc170_1726"
    INDEX 01 05:05:09
  TRACK 205 AUDIO
    TITLE "0:"
    INDEX 01 05:07:47
  TRACK 206 AUDIO
    TITLE "6:cjc170_1727"
    INDEX 01 05:08:17
  TRACK 207 AUDIO
    TITLE "0:"
    INDEX 01 05:09:48
  TRACK 208 AUDIO
    TITLE "5:cjc170_1728"
    INDEX 01 05:10:18
  TRACK 209 AUDIO
    TITLE "0:"
    INDEX 01 05:12:58
  TRACK 210 AUDIO
    TITLE "6:cjc170_1729"
    INDEX 01 05:13:55
  TRACK 211 AUDIO
    TITLE "0:"
    INDEX 01 05:15:35
  TRACK 212 AUDIO
    TITLE "5:cjc170_1730"
    INDEX 01 05:15:72
  TRACK 213 AUDIO
    TITLE "0:"
    INDEX 01 05:19:23
  TRACK 214 AUDIO
    TITLE "6:cjc170_1731"
    INDEX 01 05:20:12
  TRACK 215 AUDIO
    TITLE "0:"
    INDEX 01 05:21:59
  TRACK 216 AUDIO
    TITLE "5:cjc170_1732"
    INDEX 01 05:22:39
  TRACK 217 AUDIO
    TITLE "0:"
    INDEX 01 05:25:37
  TRACK 218 AUDIO
    TITLE "6:cjc170_1733"
    INDEX 01 05:26:40
  TRACK 219 AUDIO
    TITLE "0:"
    INDEX 01 05:28:12
  TRACK 220 AUDIO
    TITLE "5:cjc170_1734"
    INDEX 01 05:28:53
  TRACK 221 AUDIO
    TITLE "0:"
    INDEX 01 05:32:15
  TRACK 222 AUDIO
    TITLE "6:cjc170_1735"
    INDEX 01 05:32:61
  TRACK 223 AUDIO
    TITLE "0:"
    INDEX 01 05:34:32
  TRACK 224 AUDIO
    TITLE "5:cjc170_1736"
    INDEX 01 05:35:06
  TRACK 225 AUDIO
    TITLE "0:"
    INDEX 01 05:38:45
  TRACK 226 AUDIO
    TITLE "6:cjc170_1737"
    INDEX 01 05:39:23
  TRACK 227 AUDIO
    TITLE "0:"
    INDEX 01 05:41:01
  TRACK 228 AUDIO
    TITLE "5:cjc170_1738"
    INDEX 01 05:41:36
  TRACK 229 AUDIO
    TITLE "0:"
    INDEX 01 05:45:59
  TRACK 230 AUDIO
    TITLE "6:cjc170_1739"
    INDEX 01 05:46:31
  TRACK 231 AUDIO
    TITLE "0:"
    INDEX 01 05:48:11
  TRACK 232 AUDIO
    TITLE "5:cjc170_1740"
    INDEX 01 05:48:52
  TRACK 233 AUDIO
    TITLE "0:"
    INDEX 01 05:51:34
  TRACK 234 AUDIO
    TITLE "6:cjc170_1741"
    INDEX 01 05:52:01
  TRACK 235 AUDIO
    TITLE "0:"
    INDEX 01 05:53:55
  TRACK 236 AUDIO
    TITLE "5:cjc170_1742"
    INDEX 01 05:54:21
  TRACK 237 AUDIO
    TITLE "0:"
    INDEX 01 06:01:15
  TRACK 238 AUDIO
    TITLE "6:cjc170_1743"
    INDEX 01 06:01:62
  TRACK 239 AUDIO
    TITLE "0:"
    INDEX 01 06:03:32
  TRACK 240 AUDIO
    TITLE "5:cjc170_1744"
    INDEX 01 06:04:00
  TRACK 241 AUDIO
    TITLE "0:"
    INDEX 01 06:08:00
  TRACK 242 AUDIO
    TITLE "6:cjc170_1745"
    INDEX 01 06:08:47
  TRACK 243 AUDIO
    TITLE "0:"
    INDEX 01 06:10:18
  TRACK 244 AUDIO
    TITLE "5:cjc170_1746"
    INDEX 01 06:10:57
  TRACK 245 AUDIO
    TITLE "0:"
    INDEX 01 06:13:30
  TRACK 246 AUDIO
    TITLE "6:cjc170_1747"
    INDEX 01 06:14:02
  TRACK 247 AUDIO
    TITLE "0:"
    INDEX 01 06:15:31
  TRACK 248 AUDIO
    TITLE "5:cjc170_1748"
    INDEX 01 06:16:03
  TRACK 249 AUDIO
    TITLE "0:"
    INDEX 01 06:19:60
  TRACK 250 AUDIO
    TITLE "6:cjc170_1749"
    INDEX 01 06:20:36
  TRACK 251 AUDIO
    TITLE "0:"
    INDEX 01 06:22:19
  TRACK 252 AUDIO
    TITLE "5:cjc170_1750"
    INDEX 01 06:22:55
  TRACK 253 AUDIO
    TITLE "0:"
    INDEX 01 06:26:62
  TRACK 254 AUDIO
    TITLE "6:cjc170_1751"
    INDEX 01 06:27:26
  TRACK 255 AUDIO
    TITLE "0:"
    INDEX 01 06:29:02
  TRACK 256 AUDIO
    TITLE "5:cjc170_1752"
    INDEX 01 06:29:49
  TRACK 257 AUDIO
    TITLE "0:"
    INDEX 01 06:33:66
  TRACK 258 AUDIO
    TITLE "6:cjc170_1753"
    INDEX 01 06:34:34
  TRACK 259 AUDIO
    TITLE "0:"
    INDEX 01 06:36:21
  TRACK 260 AUDIO
    TITLE "5:cjc170_1754"
    INDEX 01 06:36:61
  TRACK 261 AUDIO
    TITLE "0:"
    INDEX 01 06:41:07
  TRACK 262 AUDIO
    TITLE "6:cjc170_1755"
    INDEX 01 06:41:54
  TRACK 263 AUDIO
    TITLE "0:"
    INDEX 01 06:43:27
  TRACK 264 AUDIO
    TITLE "5:cjc170_1756"
    INDEX 01 06:43:70
  TRACK 265 AUDIO
    TITLE "0:"
    INDEX 01 06:46:63
  TRACK 266 AUDIO
    TITLE "6:cjc170_1757"
    INDEX 01 06:47:60
  TRACK 267 AUDIO
    TITLE "0:"
    INDEX 01 06:49:38
  TRACK 268 AUDIO
    TITLE "5:cjc170_1758"
    INDEX 01 06:50:08
  TRACK 269 AUDIO
    TITLE "0:"
    INDEX 01 06:52:60
  TRACK 270 AUDIO
    TITLE "6:cjc170_1759"
    INDEX 01 06:53:33
  TRACK 271 AUDIO
    TITLE "0:"
    INDEX 01 06:55:13
  TRACK 272 AUDIO
    TITLE "5:cjc170_1760"
    INDEX 01 06:55:56
  TRACK 273 AUDIO
    TITLE "0:"
    INDEX 01 06:59:15
  TRACK 274 AUDIO
    TITLE "6:cjc170_1761"
    INDEX 01 06:59:73
  TRACK 275 AUDIO
    TITLE "0:"
    INDEX 01 07:01:57
  TRACK 276 AUDIO
    TITLE "5:cjc170_1762"
    INDEX 01 07:02:17
  TRACK 277 AUDIO
    TITLE "0:"
    INDEX 01 07:06:19
  TRACK 278 AUDIO
    TITLE "6:cjc170_1763"
    INDEX 01 07:06:66
  TRACK 279 AUDIO
    TITLE "0:"
    INDEX 01 07:08:31
  TRACK 280 AUDIO
    TITLE "5:cjc170_1764"
    INDEX 01 07:08:72
  TRACK 281 AUDIO
    TITLE "0:"
    INDEX 01 07:12:23
  TRACK 282 AUDIO
    TITLE "6:cjc170_1765"
    INDEX 01 07:13:01
  TRACK 283 AUDIO
    TITLE "0:"
    INDEX 01 07:14:53
  TRACK 284 AUDIO
    TITLE "5:cjc170_1766"
    INDEX 01 07:15:17
  TRACK 285 AUDIO
    TITLE "0:"
    INDEX 01 07:19:11
  TRACK 286 AUDIO
    TITLE "6:cjc170_1767"
    INDEX 01 07:19:60
  TRACK 287 AUDIO
    TITLE "0:"
    INDEX 01 07:21:10
  TRACK 288 AUDIO
    TITLE "5:cjc170_1768"
    INDEX 01 07:21:55
  TRACK 289 AUDIO
    TITLE "0:"
    INDEX 01 07:25:41
  TRACK 290 AUDIO
    TITLE "6:cjc170_1769"
    INDEX 01 07:26:15
  TRACK 291 AUDIO
    TITLE "0:"
    INDEX 01 07:28:02
  TRACK 292 AUDIO
    TITLE "5:cjc170_1770"
    INDEX 01 07:28:42
  TRACK 293 AUDIO
    TITLE "0:"
    INDEX 01 07:32:10
  TRACK 294 AUDIO
    TITLE "6:cjc170_1771"
    INDEX 01 07:32:63
  TRACK 295 AUDIO
    TITLE "0:"
    INDEX 01 07:34:42
  TRACK 296 AUDIO
    TITLE "5:cjc170_1772"
    INDEX 01 07:35:14
  TRACK 297 AUDIO
    TITLE "5:cjc170_1773"
    INDEX 01 07:37:07
  TRACK 298 AUDIO
    TITLE "0:"
    INDEX 01 07:38:71
  TRACK 299 AUDIO
    TITLE "6:cjc170_1774"
    INDEX 01 07:39:55
  TRACK 300 AUDIO
    TITLE "0:"
    INDEX 01 07:41:42
  TRACK 301 AUDIO
    TITLE "5:cjc170_1775"
    INDEX 01 07:42:05
  TRACK 302 AUDIO
    TITLE "0:"
    INDEX 01 07:44:43
  TRACK 303 AUDIO
    TITLE "6:cjc170_1776"
    INDEX 01 07:45:11
  TRACK 304 AUDIO
    TITLE "0:"
    INDEX 01 07:46:59
  TRACK 305 AUDIO
    TITLE "5:cjc170_1777"
    INDEX 01 07:47:27
  TRACK 306 AUDIO
    TITLE "0:"
    INDEX 01 07:50:61
  TRACK 307 AUDIO
    TITLE "6:cjc170_1778"
    INDEX 01 07:51:35
  TRACK 308 AUDIO
    TITLE "0:"
    INDEX 01 07:53:12
  TRACK 309 AUDIO
    TITLE "5:cjc170_1779"
    INDEX 01 07:53:53
  TRACK 310 AUDIO
    TITLE "0:"
    INDEX 01 07:57:02
  TRACK 311 AUDIO
    TITLE "6:cjc170_1780"
    INDEX 01 07:57:47
  TRACK 312 AUDIO
    TITLE "0:"
    INDEX 01 07:59:28
  TRACK 313 AUDIO
    TITLE "5:cjc170_1781"
    INDEX 01 07:59:74
  TRACK 314 AUDIO
    TITLE "0:"
    INDEX 01 08:02:70
  TRACK 315 AUDIO
    TITLE "6:cjc170_1782"
    INDEX 01 08:03:62
  TRACK 316 AUDIO
    TITLE "0:"
    INDEX 01 08:05:45
  TRACK 317 AUDIO
    TITLE "5:cjc170_1783"
    INDEX 01 08:06:07
  TRACK 318 AUDIO
    TITLE "0:"
    INDEX 01 08:09:09
  TRACK 319 AUDIO
    TITLE "6:cjc170_1784"
    INDEX 01 08:09:50
  TRACK 320 AUDIO
    TITLE "0:"
    INDEX 01 08:11:22
  TRACK 321 AUDIO
    TITLE "5:cjc170_1785"
    INDEX 01 08:11:69
  TRACK 322 AUDIO
    TITLE "0:"
    INDEX 01 08:14:52
  TRACK 323 AUDIO
    TITLE "6:cjc170_1786"
    INDEX 01 08:15:35
  TRACK 324 AUDIO
    TITLE "0:"
    INDEX 01 08:17:17
  TRACK 325 AUDIO
    TITLE "5:cjc170_1787"
    INDEX 01 08:17:52
  TRACK 326 AUDIO
    TITLE "0:"
    INDEX 01 08:21:03
  TRACK 327 AUDIO
    TITLE "6:cjc170_1788"
    INDEX 01 08:21:54
  TRACK 328 AUDIO
    TITLE "0:"
    INDEX 01 08:23:04
  TRACK 329 AUDIO
    TITLE "5:cjc170_1789"
    INDEX 01 08:23:54
  TRACK 330 AUDIO
    TITLE "0:"
    INDEX 01 08:26:49
  TRACK 331 AUDIO
    TITLE "6:cjc170_1790"
    INDEX 01 08:27:54
  TRACK 332 AUDIO
    TITLE "0:"
    INDEX 01 08:29:22
  TRACK 333 AUDIO
    TITLE "5:cjc170_1791"
    INDEX 01 08:29:57
  TRACK 334 AUDIO
    TITLE "0:"
    INDEX 01 08:34:03
  TRACK 335 AUDIO
    TITLE "6:cjc170_1792"
    INDEX 01 08:34:54
  TRACK 336 AUDIO
    TITLE "0:"
    INDEX 01 08:36:20
  TRACK 337 AUDIO
    TITLE "5:cjc170_1793"
    INDEX 01 08:36:67
  TRACK 338 AUDIO
    TITLE "0:"
    INDEX 01 08:39:55
  TRACK 339 AUDIO
    TITLE "6:cjc170_1794"
    INDEX 01 08:40:29
  TRACK 340 AUDIO
    TITLE "0:"
    INDEX 01 08:42:01
  TRACK 341 AUDIO
    TITLE "5:cjc170_1795"
    INDEX 01 08:42:36
  TRACK 342 AUDIO
    TITLE "0:"
    INDEX 01 08:47:59
  TRACK 343 AUDIO
    TITLE "6:cjc170_1796"
    INDEX 01 08:48:31
  TRACK 344 AUDIO
    TITLE "0:"
    INDEX 01 08:49:73
  TRACK 345 AUDIO
    TITLE "5:cjc170_1797"
    INDEX 01 08:50:47
  TRACK 346 AUDIO
    TITLE "0:"
    INDEX 01 08:53:57
  TRACK 347 AUDIO
    TITLE "6:cjc170_1798"
    INDEX 01 08:54:53
  TRACK 348 AUDIO
    TITLE "0:"
    INDEX 01 08:56:19
  TRACK 349 AUDIO
    TITLE "5:cjc170_1799"
    INDEX 01 08:56:64
  TRACK 350 AUDIO
    TITLE "0:"
    INDEX 01 09:00:60
  TRACK 351 AUDIO
    TITLE "6:cjc170_1800"
    INDEX 01 09:01:41
  TRACK 352 AUDIO
    TITLE "0:"
    INDEX 01 09:03:15
  TRACK 353 AUDIO
    TITLE "5:cjc170_1801"
    INDEX 01 09:03:50
  TRACK 354 AUDIO
    TITLE "0:"
    INDEX 01 09:06:03
  TRACK 355 AUDIO
    TITLE "6:cjc170_1802"
    INDEX 01 09:06:58
  TRACK 356 AUDIO
    TITLE "0:"
    INDEX 01 09:08:32
  TRACK 357 AUDIO
    TITLE "5:cjc170_1803"
    INDEX 01 09:09:06
  TRACK 358 AUDIO
    TITLE "0:"
    INDEX 01 09:11:26
  TRACK 359 AUDIO
    TITLE "6:cjc170_1804"
    INDEX 01 09:12:00
  TRACK 360 AUDIO
    TITLE "0:"
    INDEX 01 09:13:43
  TRACK 361 AUDIO
    TITLE "5:cjc170_1805"
    INDEX 01 09:14:09
  TRACK 362 AUDIO
    TITLE "0:"
    INDEX 01 09:17:15
  TRACK 363 AUDIO
    TITLE "6:cjc170_1806"
    INDEX 01 09:18:07
  TRACK 364 AUDIO
    TITLE "0:"
    INDEX 01 09:19:47
  TRACK 365 AUDIO
    TITLE "5:cjc170_1807"
    INDEX 01 09:20:13
  TRACK 366 AUDIO
    TITLE "0:"
    INDEX 01 09:22:38
  TRACK 367 AUDIO
    TITLE "6:cjc170_1808"
    INDEX 01 09:23:06
  TRACK 368 AUDIO
    TITLE "0:"
    INDEX 01 09:24:29
  TRACK 369 AUDIO
    TITLE "5:cjc170_1809"
    INDEX 01 09:24:72
  TRACK 370 AUDIO
    TITLE "0:"
    INDEX 01 09:28:70
  TRACK 371 AUDIO
    TITLE "6:cjc170_1810"
    INDEX 01 09:29:46
  TRACK 372 AUDIO
    TITLE "0:"
    INDEX 01 09:31:21
  TRACK 373 AUDIO
    TITLE "5:cjc170_1811"
    INDEX 01 09:31:60
  TRACK 374 AUDIO
    TITLE "0:"
    INDEX 01 09:34:29
  TRACK 375 AUDIO
    TITLE "6:cjc170_1812"
    INDEX 01 09:35:03
  TRACK 376 AUDIO
    TITLE "0:"
    INDEX 01 09:36:51
  TRACK 377 AUDIO
    TITLE "5:cjc170_1813"
    INDEX 01 09:37:27
  TRACK 378 AUDIO
    TITLE "0:"
    INDEX 01 09:40:37
  TRACK 379 AUDIO
    TITLE "6:cjc170_1814"
    INDEX 01 09:41:23
  TRACK 380 AUDIO
    TITLE "0:"
    INDEX 01 09:43:03
  TRACK 381 AUDIO
    TITLE "5:cjc170_1815"
    INDEX 01 09:43:44
  TRACK 382 AUDIO
    TITLE "0:"
    INDEX 01 09:46:44
  TRACK 383 AUDIO
    TITLE "6:cjc170_1816"
    INDEX 01 09:47:14
  TRACK 384 AUDIO
    TITLE "0:"
    INDEX 01 09:48:60
  TRACK 385 AUDIO
    TITLE "5:cjc170_1817"
    INDEX 01 09:49:36
  TRACK 386 AUDIO
    TITLE "0:"
    INDEX 01 09:52:19
  TRACK 387 AUDIO
    TITLE "6:cjc170_1818"
    INDEX 01 09:53:07
  TRACK 388 AUDIO
    TITLE "0:"
    INDEX 01 09:54:55
  TRACK 389 AUDIO
    TITLE "5:cjc170_1819"
    INDEX 01 09:55:27
  TRACK 390 AUDIO
    TITLE "0:"
    INDEX 01 09:57:52
  TRACK 391 AUDIO
    TITLE "6:cjc170_1820"
    INDEX 01 09:58:24
  TRACK 392 AUDIO
    TITLE "0:"
    INDEX 01 09:59:70
  TRACK 393 AUDIO
    TITLE "5:cjc170_1821"
    INDEX 01 10:00:44
  TRACK 394 AUDIO
    TITLE "0:"
    INDEX 01 10:03:29
  TRACK 395 AUDIO
    TITLE "6:cjc170_1822"
    INDEX 01 10:04:14
  TRACK 396 AUDIO
    TITLE "0:"
    INDEX 01 10:05:67
  TRACK 397 AUDIO
    TITLE "5:cjc170_1823"
    INDEX 01 10:06:27
  TRACK 398 AUDIO
    TITLE "0:"
    INDEX 01 10:08:48
  TRACK 399 AUDIO
    TITLE "6:cjc170_1824"
    INDEX 01 10:09:21
  TRACK 400 AUDIO
    TITLE "0:"
    INDEX 01 10:10:60
  TRACK 401 AUDIO
    TITLE "5:cjc170_1825"
    INDEX 01 10:11:32
  TRACK 402 AUDIO
    TITLE "0:"
    INDEX 01 10:15:28
  TRACK 403 AUDIO
    TITLE "6:cjc170_1826"
    INDEX 01 10:16:18
  TRACK 404 AUDIO
    TITLE "0:"
    INDEX 01 10:17:66
  TRACK 405 AUDIO
    TITLE "5:cjc170_1827"
    INDEX 01 10:18:36
  TRACK 406 AUDIO
    TITLE "0:"
    INDEX 01 10:21:17
  TRACK 407 AUDIO
    TITLE "6:cjc170_1828"
    INDEX 01 10:21:68
  TRACK 408 AUDIO
    TITLE "0:"
    INDEX 01 10:23:37
  TRACK 409 AUDIO
    TITLE "5:cjc170_1829"
    INDEX 01 10:24:15
  TRACK 410 AUDIO
    TITLE "0:"
    INDEX 01 10:27:39
  TRACK 411 AUDIO
    TITLE "6:cjc170_1830"
    INDEX 01 10:28:25
  TRACK 412 AUDIO
    TITLE "0:"
    INDEX 01 10:30:20
  TRACK 413 AUDIO
    TITLE "5:cjc170_1831"
    INDEX 01 10:30:63
  TRACK 414 AUDIO
    TITLE "0:"
    INDEX 01 10:36:24
  TRACK 415 AUDIO
    TITLE "6:cjc170_1832"
    INDEX 01 10:36:71
  TRACK 416 AUDIO
    TITLE "0:"
    INDEX 01 10:38:56
  TRACK 417 AUDIO
    TITLE "5:cjc170_1833"
    INDEX 01 10:39:30
  TRACK 418 AUDIO
    TITLE "0:"
    INDEX 01 10:44:73
  TRACK 419 AUDIO
    TITLE "6:cjc170_1834"
    INDEX 01 10:45:60
  TRACK 420 AUDIO
    TITLE "0:"
    INDEX 01 10:47:53
  TRACK 421 AUDIO
    TITLE "5:cjc170_1835"
    INDEX 01 10:48:25
  TRACK 422 AUDIO
    TITLE "0:"
    INDEX 01 10:52:35
  TRACK 423 AUDIO
    TITLE "6:cjc170_1836"
    INDEX 01 10:53:03
  TRACK 424 AUDIO
    TITLE "0:"
    INDEX 01 10:54:69
  TRACK 425 AUDIO
    TITLE "5:cjc170_1837"
    INDEX 01 10:55:45
  TRACK 426 AUDIO
    TITLE "0:"
    INDEX 01 10:59:53
  TRACK 427 AUDIO
    TITLE "6:cjc170_1838"
    INDEX 01 11:00:37
  TRACK 428 AUDIO
    TITLE "0:"
    INDEX 01 11:02:26
  TRACK 429 AUDIO
    TITLE "5:cjc170_1839"
    INDEX 01 11:03:02
  TRACK 430 AUDIO
    TITLE "0:"
    INDEX 01 11:06:16
  TRACK 431 AUDIO
    TITLE "6:cjc170_1840"
    INDEX 01 11:06:66
  TRACK 432 AUDIO
    TITLE "0:"
    INDEX 01 11:08:60
  TRACK 433 AUDIO
    TITLE "5:cjc170_1841"
    INDEX 01 11:09:32
  TRACK 434 AUDIO
    TITLE "0:"
    INDEX 01 11:13:72
  TRACK 435 AUDIO
    TITLE "6:cjc170_1842"
    INDEX 01 11:14:64
  TRACK 436 AUDIO
    TITLE "0:"
    INDEX 01 11:16:57
  TRACK 437 AUDIO
    TITLE "5:cjc170_1843"
    INDEX 01 11:17:21
  TRACK 438 AUDIO
    TITLE "0:"
    INDEX 01 11:23:04
  TRACK 439 AUDIO
    TITLE "6:cjc170_1844"
    INDEX 01 11:23:55
  TRACK 440 AUDIO
    TITLE "0:"
    INDEX 01 11:25:40
  TRACK 441 AUDIO
    TITLE "5:cjc170_1845"
    INDEX 01 11:26:16
  TRACK 442 AUDIO
    TITLE "0:"
    INDEX 01 11:30:73
  TRACK 443 AUDIO
    TITLE "6:cjc170_1846"
    INDEX 01 11:31:61
  TRACK 444 AUDIO
    TITLE "0:"
    INDEX 01 11:33:46
  TRACK 445 AUDIO
    TITLE "5:cjc170_1847"
    INDEX 01 11:34:12
  TRACK 446 AUDIO
    TITLE "0:"
    INDEX 01 11:38:00
  TRACK 447 AUDIO
    TITLE "6:cjc170_1848"
    INDEX 01 11:38:51
  TRACK 448 AUDIO
    TITLE "0:"
    INDEX 01 11:40:46
  TRACK 449 AUDIO
    TITLE "5:cjc170_1849"
    INDEX 01 11:41:12
  TRACK 450 AUDIO
    TITLE "0:"
    INDEX 01 11:45:04
